<svg width="240" height="226" viewBox="0 0 240 226" fill="none" xmlns="http://www.w3.org/2000/svg">
<circle cx="128.588" cy="111.412" r="111.412" fill="#FFFAD8"/>
<path d="M84.766 225.563C131.581 225.563 169.532 220.824 169.532 214.979C169.532 209.133 131.581 204.395 84.766 204.395C37.9511 204.395 0 209.133 0 214.979C0 220.824 37.9511 225.563 84.766 225.563Z" fill="#404040"/>
<path d="M65.9652 207.505V204.07C65.9652 202.538 64.7119 201.284 63.1799 201.284H32.5416C31.0097 201.284 29.7563 202.538 29.7563 204.07V214.282C29.7563 215.814 31.0097 217.068 32.5416 217.068H52.9208C55.149 217.068 57.2844 216.186 58.8627 214.607L65.9652 207.505Z" fill="#368455"/>
<path opacity="0.3" d="M63.1799 201.284H32.5416C31.0097 201.284 29.7563 202.538 29.7563 204.07V213.54H59.9304L65.9652 207.505V204.07C65.9652 202.538 64.7119 201.284 63.1799 201.284Z" fill="#0A1E2B" stroke="#0A1E2B" stroke-width="2.7853" stroke-miterlimit="10" stroke-linecap="round" stroke-linejoin="round"/>
<path d="M103.567 207.505V204.07C103.567 202.538 104.82 201.284 106.352 201.284H136.99C138.522 201.284 139.776 202.538 139.776 204.07V214.282C139.776 215.814 138.522 217.068 136.99 217.068H116.611C114.383 217.068 112.248 216.186 110.669 214.607L103.567 207.505Z" fill="#368455"/>
<path opacity="0.3" d="M136.99 201.284H106.352C104.82 201.284 103.567 202.538 103.567 204.07V207.505L109.602 213.54H139.776V204.07C139.776 202.538 138.522 201.284 136.99 201.284Z" fill="#0A1E2B" stroke="#0A1E2B" stroke-width="2.7853" stroke-miterlimit="10" stroke-linecap="round" stroke-linejoin="round"/>
<path d="M65.9652 207.505V204.07C65.9652 202.538 64.7119 201.284 63.1799 201.284H32.5416C31.0097 201.284 29.7563 202.538 29.7563 204.07V214.282C29.7563 215.814 31.0097 217.068 32.5416 217.068H52.9208C55.149 217.068 57.2844 216.186 58.8627 214.607L65.9652 207.505Z" stroke="#404040" stroke-width="2.7853" stroke-miterlimit="10" stroke-linecap="round" stroke-linejoin="round"/>
<path d="M103.567 207.505V204.07C103.567 202.538 104.82 201.284 106.352 201.284H136.99C138.522 201.284 139.776 202.538 139.776 204.07V214.282C139.776 215.814 138.522 217.068 136.99 217.068H116.611C114.383 217.068 112.248 216.186 110.669 214.607L103.567 207.505Z" stroke="#404040" stroke-width="2.7853" stroke-miterlimit="10" stroke-linecap="round" stroke-linejoin="round"/>
<path d="M145.114 207.551H24.4178C14.1586 207.551 5.84912 199.242 5.84912 188.983V68.2862C5.84912 58.027 14.1586 49.7176 24.4178 49.7176H145.114C155.373 49.7176 163.683 58.027 163.683 68.2862V188.983C163.683 199.242 155.373 207.551 145.114 207.551Z" fill="#BACD9A"/>
<path d="M145.114 49.7176H24.4178C14.1586 49.7176 5.84912 58.027 5.84912 68.2862V78.9632C5.84912 68.704 14.1586 60.3945 24.4178 60.3945H145.114C155.373 60.3945 163.683 68.704 163.683 78.9632V68.2862C163.683 58.027 155.373 49.7176 145.114 49.7176Z" fill="#E4F6C6"/>
<path opacity="0.23" d="M116.658 49.5319H128.542L120.511 66.4294L116.658 49.5319Z" fill="#0A1E2B" stroke="#0A1E2B" stroke-width="2.7853" stroke-miterlimit="10" stroke-linecap="round" stroke-linejoin="round"/>
<path d="M145.114 196.874H24.4178C14.1586 196.874 5.84912 188.565 5.84912 178.306V188.983C5.84912 199.242 14.1586 207.551 24.4178 207.551H145.114C155.373 207.551 163.683 199.242 163.683 188.983V178.306C163.683 188.565 155.373 196.874 145.114 196.874Z" fill="#368455"/>
<path d="M145.114 207.551H24.4178C14.1586 207.551 5.84912 199.242 5.84912 188.983V68.2862C5.84912 58.027 14.1586 49.7176 24.4178 49.7176H145.114C155.373 49.7176 163.683 58.027 163.683 68.2862V188.983C163.683 199.242 155.373 207.551 145.114 207.551Z" stroke="#404040" stroke-width="2.7853" stroke-miterlimit="10" stroke-linecap="round" stroke-linejoin="round"/>
<path d="M139.544 66.4294H29.9885C25.9034 66.4294 22.561 69.7717 22.561 73.8568V77.5706C22.561 73.4854 25.9034 71.5357 29.9885 71.5357H139.544C143.629 71.5357 146.971 73.4854 146.971 77.5706V73.8568C146.971 69.7253 143.629 66.4294 139.544 66.4294Z" fill="#E4F6C6"/>
<path d="M139.544 184.805H29.9885C25.9034 184.805 22.561 181.462 22.561 177.377V183.412C22.561 187.497 25.9034 190.839 29.9885 190.839H139.544C143.629 190.839 146.971 187.497 146.971 183.412V177.377C146.971 181.462 143.629 184.805 139.544 184.805Z" fill="#368455"/>
<path d="M29.9885 190.839C25.9034 190.839 22.561 187.497 22.561 183.412V73.8568C22.561 69.7717 25.9034 66.4294 29.9885 66.4294H139.544C143.629 66.4294 146.971 69.7717 146.971 73.8568V183.412C146.971 187.497 143.629 190.839 139.544 190.839H29.9885Z" stroke="#404040" stroke-width="2.7853" stroke-miterlimit="10" stroke-linecap="round" stroke-linejoin="round"/>
<path opacity="0.23" d="M133.648 172.781H132.719C131.698 172.781 130.863 171.946 130.863 170.925V100.364C130.863 99.3424 131.698 98.5068 132.719 98.5068H133.648C134.669 98.5068 135.505 99.3424 135.505 100.364V170.925C135.505 171.946 134.669 172.781 133.648 172.781Z" fill="#0A1E2B" stroke="#0A1E2B" stroke-width="2.7853" stroke-miterlimit="10" stroke-linecap="round" stroke-linejoin="round"/>
<path d="M133.648 163.497H132.719C131.698 163.497 130.863 162.661 130.863 161.64V91.0793C130.863 90.058 131.698 89.2224 132.719 89.2224H133.648C134.669 89.2224 135.505 90.058 135.505 91.0793V161.64C135.505 162.661 134.669 163.497 133.648 163.497Z" fill="#368455"/>
<path d="M133.648 163.497H132.719C131.698 163.497 130.863 162.662 130.863 161.64V91.0793C130.863 90.058 131.698 89.2224 132.719 89.2224H133.648C134.669 89.2224 135.505 90.058 135.505 91.0793V161.64C135.505 162.662 134.669 163.497 133.648 163.497Z" stroke="#404040" stroke-width="2.7853" stroke-miterlimit="10" stroke-linecap="round" stroke-linejoin="round"/>
<path opacity="0.23" d="M84.7661 162.522C101.431 162.522 114.94 149.013 114.94 132.348C114.94 115.683 101.431 102.174 84.7661 102.174C68.1012 102.174 54.592 115.683 54.592 132.348C54.592 149.013 68.1012 162.522 84.7661 162.522Z" fill="#0A1E2B" stroke="#0A1E2B" stroke-width="2.7853" stroke-miterlimit="10" stroke-linecap="round" stroke-linejoin="round"/>
<path d="M84.7661 158.808C101.431 158.808 114.94 145.299 114.94 128.634C114.94 111.969 101.431 98.4603 84.7661 98.4603C68.1012 98.4603 54.592 111.969 54.592 128.634C54.592 145.299 68.1012 158.808 84.7661 158.808Z" fill="#BACD9A"/>
<path d="M84.7661 158.808C101.431 158.808 114.94 145.299 114.94 128.634C114.94 111.969 101.431 98.4603 84.7661 98.4603C68.1012 98.4603 54.592 111.969 54.592 128.634C54.592 145.299 68.1012 158.808 84.7661 158.808Z" stroke="#404040" stroke-width="2.7853" stroke-miterlimit="10" stroke-linecap="round" stroke-linejoin="round"/>
<path d="M84.7659 153.702C98.6103 153.702 109.834 142.479 109.834 128.634C109.834 114.79 98.6103 103.567 84.7659 103.567C70.9216 103.567 59.6982 114.79 59.6982 128.634C59.6982 142.479 70.9216 153.702 84.7659 153.702Z" fill="#368455"/>
<path d="M84.7661 109.602V147.667" stroke="#404040" stroke-width="4.64217" stroke-miterlimit="10" stroke-linecap="round" stroke-linejoin="round"/>
<path d="M103.799 128.634H65.7332" stroke="#404040" stroke-width="4.64217" stroke-miterlimit="10" stroke-linecap="round" stroke-linejoin="round"/>
<path d="M98.2283 115.172L71.3037 142.097" stroke="#404040" stroke-width="4.64217" stroke-miterlimit="10" stroke-linecap="round" stroke-linejoin="round"/>
<path d="M98.2283 142.097L71.3037 115.172" stroke="#404040" stroke-width="4.64217" stroke-miterlimit="10" stroke-linecap="round" stroke-linejoin="round"/>
<path opacity="0.3" d="M84.7661 150.778C78.3599 150.778 73.1606 145.578 73.1606 139.172V127.567H96.3715V139.172C96.3715 145.578 91.1723 150.778 84.7661 150.778Z" fill="#0A1E2B" stroke="#0A1E2B" stroke-width="2.7853" stroke-miterlimit="10" stroke-linecap="round" stroke-linejoin="round"/>
<path opacity="0.23" d="M22.5609 111.226C20.5183 111.226 18.8472 109.555 18.8472 107.513V96.3713C18.8472 94.3288 20.5183 92.6576 22.5609 92.6576C24.6035 92.6576 26.2746 94.3288 26.2746 96.3713V107.513C26.2746 109.555 24.6035 111.226 22.5609 111.226Z" fill="#0A1E2B" stroke="#0A1E2B" stroke-width="2.7853" stroke-miterlimit="10" stroke-linecap="round" stroke-linejoin="round"/>
<path opacity="0.23" d="M22.5609 171.807C20.5183 171.807 18.8472 170.135 18.8472 168.093V156.952C18.8472 154.909 20.5183 153.238 22.5609 153.238C24.6035 153.238 26.2746 154.909 26.2746 156.952V168.093C26.2746 170.135 24.6035 171.807 22.5609 171.807Z" fill="#0A1E2B" stroke="#0A1E2B" stroke-width="2.7853" stroke-miterlimit="10" stroke-linecap="round" stroke-linejoin="round"/>
<path d="M22.5609 107.513C20.5183 107.513 18.8472 105.841 18.8472 103.799V92.6576C18.8472 90.615 20.5183 88.9439 22.5609 88.9439C24.6035 88.9439 26.2746 90.615 26.2746 92.6576V103.799C26.2746 105.841 24.6035 107.513 22.5609 107.513Z" fill="#368455"/>
<path d="M22.5609 168.325C20.5183 168.325 18.8472 166.654 18.8472 164.611V153.47C18.8472 151.427 20.5183 149.756 22.5609 149.756C24.6035 149.756 26.2746 151.427 26.2746 153.47V164.611C26.2746 166.654 24.6035 168.325 22.5609 168.325Z" fill="#368455"/>
<path d="M22.5609 107.513C20.5183 107.513 18.8472 105.841 18.8472 103.799V92.6576C18.8472 90.615 20.5183 88.9439 22.5609 88.9439C24.6035 88.9439 26.2746 90.615 26.2746 92.6576V103.799C26.2746 105.841 24.6035 107.513 22.5609 107.513Z" stroke="#404040" stroke-width="2.7853" stroke-miterlimit="10" stroke-linecap="round" stroke-linejoin="round"/>
<path d="M22.5609 168.325C20.5183 168.325 18.8472 166.654 18.8472 164.611V153.47C18.8472 151.427 20.5183 149.756 22.5609 149.756C24.6035 149.756 26.2746 151.427 26.2746 153.47V164.611C26.2746 166.654 24.6035 168.325 22.5609 168.325Z" stroke="#404040" stroke-width="2.7853" stroke-miterlimit="10" stroke-linecap="round" stroke-linejoin="round"/>
<path d="M84.7661 140.24C91.1755 140.24 96.3715 135.044 96.3715 128.634C96.3715 122.225 91.1755 117.029 84.7661 117.029C78.3566 117.029 73.1606 122.225 73.1606 128.634C73.1606 135.044 78.3566 140.24 84.7661 140.24Z" fill="#FFEA9E"/>
<path d="M84.7659 133.834C87.6375 133.834 89.9651 131.506 89.9651 128.634C89.9651 125.763 87.6375 123.435 84.7659 123.435C81.8942 123.435 79.5667 125.763 79.5667 128.634C79.5667 131.506 81.8942 133.834 84.7659 133.834Z" fill="#EDC75D"/>
<path d="M84.7661 139.311C90.663 139.311 95.4431 134.531 95.4431 128.634C95.4431 122.737 90.663 117.957 84.7661 117.957C78.8692 117.957 74.0891 122.737 74.0891 128.634C74.0891 134.531 78.8692 139.311 84.7661 139.311Z" stroke="#404040" stroke-width="3.71373" stroke-miterlimit="10" stroke-linecap="round" stroke-linejoin="round"/>
<path d="M121.439 66.4294H89.6404V42.1973C89.6404 40.3404 91.1259 38.8549 92.9827 38.8549H118.05C119.907 38.8549 121.393 40.3404 121.393 42.1973L121.439 66.4294Z" fill="#368455" stroke="#404040" stroke-width="2.7853" stroke-miterlimit="10" stroke-linecap="round" stroke-linejoin="round"/>
<path d="M115.172 44.6112H108.395C108.395 46.1895 107.141 47.4429 105.563 47.4429C103.984 47.4429 102.731 46.1895 102.731 44.6112H95.9071C95.118 44.6112 94.4216 45.2611 94.4216 46.0967V66.4294H116.611V46.0967C116.658 45.2611 115.961 44.6112 115.172 44.6112Z" fill="#BACD9A"/>
<path d="M105.563 68.1005C109.408 68.1005 112.526 65.1286 112.526 61.4622C112.526 57.7959 109.408 54.8239 105.563 54.8239C101.717 54.8239 98.5996 57.7959 98.5996 61.4622C98.5996 65.1286 101.717 68.1005 105.563 68.1005Z" fill="white"/>
<path d="M121.439 66.4294H89.6404V42.1973C89.6404 40.3404 91.1259 38.8549 92.9827 38.8549H118.05C119.907 38.8549 121.393 40.3404 121.393 42.1973L121.439 66.4294Z" stroke="#404040" stroke-width="2.7853" stroke-miterlimit="10" stroke-linecap="round" stroke-linejoin="round"/>
<path d="M176.681 57.9807L167.304 56.6809" stroke="#404040" stroke-width="2.7853" stroke-miterlimit="10" stroke-linecap="round" stroke-linejoin="round"/>
<path d="M154.352 43.2649L152.959 33.8878" stroke="#404040" stroke-width="2.7853" stroke-miterlimit="10" stroke-linecap="round" stroke-linejoin="round"/>
<path d="M163.636 46.6538L170.368 39.9226" stroke="#404040" stroke-width="2.7853" stroke-miterlimit="10" stroke-linecap="round" stroke-linejoin="round"/>
</svg>
