<svg width="208" height="44" viewBox="0 0 208 44" fill="none" xmlns="http://www.w3.org/2000/svg">
<circle cx="22" cy="22" r="22" fill="#368455"/>
<path d="M11.8799 14.76C11.8799 11.2253 14.7452 8.35999 18.2799 8.35999H32.3599V14.76H20.1999V20.72H29.1599C30.9271 20.72 32.3599 22.1526 32.3599 23.92C32.3599 25.6873 30.9271 27.12 29.1599 27.12H20.1999V30.12C20.1999 33.6547 17.3346 36.52 13.7999 36.52V27.12H11.8799V20.72H13.7999V14.76H11.8799Z" fill="#FFFAD8"/>
<path d="M64.4453 13.248V15.96H57.4613V20.256H62.8133V22.92H57.4613V30H54.1013V13.248H64.4453ZM68.5319 15.12C67.9399 15.12 67.4439 14.936 67.0439 14.568C66.6599 14.184 66.4679 13.712 66.4679 13.152C66.4679 12.592 66.6599 12.128 67.0439 11.76C67.4439 11.376 67.9399 11.184 68.5319 11.184C69.1239 11.184 69.6119 11.376 69.9959 11.76C70.3959 12.128 70.5959 12.592 70.5959 13.152C70.5959 13.712 70.3959 14.184 69.9959 14.568C69.6119 14.936 69.1239 15.12 68.5319 15.12ZM70.1879 16.704V30H66.8279V16.704H70.1879ZM80.8756 16.512C82.4596 16.512 83.7396 17.016 84.7156 18.024C85.6916 19.016 86.1796 20.408 86.1796 22.2V30H82.8196V22.656C82.8196 21.6 82.5556 20.792 82.0276 20.232C81.4996 19.656 80.7796 19.368 79.8676 19.368C78.9396 19.368 78.2036 19.656 77.6596 20.232C77.1316 20.792 76.8676 21.6 76.8676 22.656V30H73.5076V16.704H76.8676V18.36C77.3156 17.784 77.8836 17.336 78.5716 17.016C79.2756 16.68 80.0436 16.512 80.8756 16.512ZM97.2468 30L92.7348 24.336V30H89.3748V12.24H92.7348V22.344L97.1988 16.704H101.567L95.7108 23.376L101.615 30H97.2468ZM109.294 30.216C108.014 30.216 106.862 29.936 105.838 29.376C104.814 28.8 104.006 27.992 103.414 26.952C102.838 25.912 102.55 24.712 102.55 23.352C102.55 21.992 102.846 20.792 103.438 19.752C104.046 18.712 104.87 17.912 105.91 17.352C106.95 16.776 108.11 16.488 109.39 16.488C110.67 16.488 111.83 16.776 112.87 17.352C113.91 17.912 114.726 18.712 115.318 19.752C115.926 20.792 116.23 21.992 116.23 23.352C116.23 24.712 115.918 25.912 115.294 26.952C114.686 27.992 113.854 28.8 112.798 29.376C111.758 29.936 110.59 30.216 109.294 30.216ZM109.294 27.288C109.902 27.288 110.47 27.144 110.998 26.856C111.542 26.552 111.974 26.104 112.294 25.512C112.614 24.92 112.774 24.2 112.774 23.352C112.774 22.088 112.438 21.12 111.766 20.448C111.11 19.76 110.302 19.416 109.342 19.416C108.382 19.416 107.574 19.76 106.918 20.448C106.278 21.12 105.958 22.088 105.958 23.352C105.958 24.616 106.27 25.592 106.894 26.28C107.534 26.952 108.334 27.288 109.294 27.288ZM126.063 16.512C127.647 16.512 128.927 17.016 129.903 18.024C130.879 19.016 131.367 20.408 131.367 22.2V30H128.007V22.656C128.007 21.6 127.743 20.792 127.215 20.232C126.687 19.656 125.967 19.368 125.055 19.368C124.127 19.368 123.391 19.656 122.847 20.232C122.319 20.792 122.055 21.6 122.055 22.656V30H118.695V16.704H122.055V18.36C122.503 17.784 123.071 17.336 123.759 17.016C124.463 16.68 125.231 16.512 126.063 16.512ZM140.466 30.216C139.186 30.216 138.034 29.936 137.01 29.376C135.986 28.8 135.178 27.992 134.586 26.952C134.01 25.912 133.722 24.712 133.722 23.352C133.722 21.992 134.018 20.792 134.61 19.752C135.218 18.712 136.042 17.912 137.082 17.352C138.122 16.776 139.282 16.488 140.562 16.488C141.842 16.488 143.002 16.776 144.042 17.352C145.082 17.912 145.898 18.712 146.49 19.752C147.098 20.792 147.402 21.992 147.402 23.352C147.402 24.712 147.09 25.912 146.466 26.952C145.858 27.992 145.026 28.8 143.97 29.376C142.93 29.936 141.762 30.216 140.466 30.216ZM140.466 27.288C141.074 27.288 141.642 27.144 142.17 26.856C142.714 26.552 143.146 26.104 143.466 25.512C143.786 24.92 143.946 24.2 143.946 23.352C143.946 22.088 143.61 21.12 142.938 20.448C142.282 19.76 141.474 19.416 140.514 19.416C139.554 19.416 138.746 19.76 138.09 20.448C137.45 21.12 137.13 22.088 137.13 23.352C137.13 24.616 137.442 25.592 138.066 26.28C138.706 26.952 139.506 27.288 140.466 27.288ZM166.379 16.512C168.011 16.512 169.323 17.016 170.315 18.024C171.323 19.016 171.827 20.408 171.827 22.2V30H168.467V22.656C168.467 21.616 168.203 20.824 167.675 20.28C167.147 19.72 166.427 19.44 165.515 19.44C164.603 19.44 163.875 19.72 163.331 20.28C162.803 20.824 162.539 21.616 162.539 22.656V30H159.179V22.656C159.179 21.616 158.915 20.824 158.387 20.28C157.859 19.72 157.139 19.44 156.227 19.44C155.299 19.44 154.563 19.72 154.019 20.28C153.491 20.824 153.227 21.616 153.227 22.656V30H149.867V16.704H153.227V18.312C153.659 17.752 154.211 17.312 154.883 16.992C155.571 16.672 156.323 16.512 157.139 16.512C158.179 16.512 159.107 16.736 159.923 17.184C160.739 17.616 161.371 18.24 161.819 19.056C162.251 18.288 162.875 17.672 163.691 17.208C164.523 16.744 165.419 16.512 166.379 16.512ZM176.719 15.12C176.127 15.12 175.631 14.936 175.231 14.568C174.847 14.184 174.655 13.712 174.655 13.152C174.655 12.592 174.847 12.128 175.231 11.76C175.631 11.376 176.127 11.184 176.719 11.184C177.311 11.184 177.799 11.376 178.183 11.76C178.583 12.128 178.783 12.592 178.783 13.152C178.783 13.712 178.583 14.184 178.183 14.568C177.799 14.936 177.311 15.12 176.719 15.12ZM178.375 16.704V30H175.015V16.704H178.375ZM180.831 23.352C180.831 21.976 181.111 20.776 181.671 19.752C182.231 18.712 183.007 17.912 183.999 17.352C184.991 16.776 186.127 16.488 187.407 16.488C189.055 16.488 190.415 16.904 191.487 17.736C192.575 18.552 193.303 19.704 193.671 21.192H190.047C189.855 20.616 189.527 20.168 189.063 19.848C188.615 19.512 188.055 19.344 187.383 19.344C186.423 19.344 185.663 19.696 185.103 20.4C184.543 21.088 184.263 22.072 184.263 23.352C184.263 24.616 184.543 25.6 185.103 26.304C185.663 26.992 186.423 27.336 187.383 27.336C188.743 27.336 189.631 26.728 190.047 25.512H193.671C193.303 26.952 192.575 28.096 191.487 28.944C190.399 29.792 189.039 30.216 187.407 30.216C186.127 30.216 184.991 29.936 183.999 29.376C183.007 28.8 182.231 28 181.671 26.976C181.111 25.936 180.831 24.728 180.831 23.352ZM201.221 30.216C200.133 30.216 199.157 30.024 198.293 29.64C197.429 29.24 196.741 28.704 196.229 28.032C195.733 27.36 195.461 26.616 195.413 25.8H198.797C198.861 26.312 199.109 26.736 199.541 27.072C199.989 27.408 200.541 27.576 201.197 27.576C201.837 27.576 202.333 27.448 202.685 27.192C203.053 26.936 203.237 26.608 203.237 26.208C203.237 25.776 203.013 25.456 202.565 25.248C202.133 25.024 201.437 24.784 200.477 24.528C199.485 24.288 198.669 24.04 198.029 23.784C197.405 23.528 196.861 23.136 196.397 22.608C195.949 22.08 195.725 21.368 195.725 20.472C195.725 19.736 195.933 19.064 196.349 18.456C196.781 17.848 197.389 17.368 198.173 17.016C198.973 16.664 199.909 16.488 200.981 16.488C202.565 16.488 203.829 16.888 204.773 17.688C205.717 18.472 206.237 19.536 206.333 20.88H203.117C203.069 20.352 202.845 19.936 202.445 19.632C202.061 19.312 201.541 19.152 200.885 19.152C200.277 19.152 199.805 19.264 199.469 19.488C199.149 19.712 198.989 20.024 198.989 20.424C198.989 20.872 199.213 21.216 199.661 21.456C200.109 21.68 200.805 21.912 201.749 22.152C202.709 22.392 203.501 22.64 204.125 22.896C204.749 23.152 205.285 23.552 205.733 24.096C206.197 24.624 206.437 25.328 206.453 26.208C206.453 26.976 206.237 27.664 205.805 28.272C205.389 28.88 204.781 29.36 203.981 29.712C203.197 30.048 202.277 30.216 201.221 30.216Z" fill="#368455"/>
</svg>
